HIERARCHY
ROOT root
{
	OFFSET	0	13.1	24.9
	CHANNELS 6  Xposition Yposition Zposition Xrotation Yrotation Zrotation
	JOINT spine_1
	{
		OFFSET	0	9.99999	0
		CHANNELS 3  Xrotation Yrotation Zrotation
		JOINT spine_2
		{
			OFFSET	0	112	-10
			CHANNELS 3  Xrotation Yrotation Zrotation
			JOINT spine_3
			{
				OFFSET	0	206.5	19.3
				CHANNELS 3  Xrotation Yrotation Zrotation
				JOINT spine_4
				{
					OFFSET	0	110.4	14.6
					CHANNELS 3  Xrotation Yrotation Zrotation
					JOINT neck_1
					{
						OFFSET	0	71.8	-50.3
						CHANNELS 3  Xrotation Yrotation Zrotation
						JOINT neck_2
						{
							OFFSET	0	86.2	-25.8
							CHANNELS 3  Xrotation Yrotation Zrotation
							JOINT head_ee
							{
								OFFSET	0	179.8	-8.7
								CHANNELS 3  Xrotation Yrotation Zrotation
								End Site
								{
									OFFSET	1	0	0
								}
							}
						}
					}
					JOINT left_clavicle
					{
						OFFSET	-43.2	22.4	-70.8
						CHANNELS 3  Xrotation Yrotation Zrotation
						JOINT left_shoulder
						{
							OFFSET	-93.9	-5.79999	48.7
							CHANNELS 3  Xrotation Yrotation Zrotation
							JOINT left_elbow
							{
								OFFSET	-291.4	-30.8	15.2
								CHANNELS 3  Xrotation Yrotation Zrotation
								JOINT left_lowarm_twist
								{
									OFFSET	-110.7	-3.89999	13.6
									CHANNELS 3  Xrotation Yrotation Zrotation
									JOINT left_hand
									{
										OFFSET	-110.7	-3.89999	13.6
										CHANNELS 3  Xrotation Yrotation Zrotation
										JOINT left_ee
										{
											OFFSET	-80.8	-5.10001	12.1
											CHANNELS 3  Xrotation Yrotation Zrotation
											End Site
											{
												OFFSET	1	0	0
											}
										}
									}
								}
							}
						}
					}
					JOINT right_clavicle
					{
						OFFSET	43.2	22.4	-70.8
						CHANNELS 3  Xrotation Yrotation Zrotation
						JOINT right_shoulder
						{
							OFFSET	93.9	-5.79999	48.7
							CHANNELS 3  Xrotation Yrotation Zrotation
							JOINT right_elbow
							{
								OFFSET	291.4	-30.8	15.2
								CHANNELS 3  Xrotation Yrotation Zrotation
								JOINT right_lowarm_twist
								{
									OFFSET	110.7	-3.89999	13.6
									CHANNELS 3  Xrotation Yrotation Zrotation
									JOINT right_hand
									{
										OFFSET	110.7	-3.89999	13.6
										CHANNELS 3  Xrotation Yrotation Zrotation
										JOINT right_ee
										{
											OFFSET	80.8	-5.10001	12.1
											CHANNELS 3  Xrotation Yrotation Zrotation
											End Site
											{
												OFFSET	1	0	0
											}
										}
									}
								}
							}
						}
					}
				}
			}
		}
	}
	JOINT left_hip
	{
		OFFSET	-82.8	-127.5	0.300001
		CHANNELS 3  Xrotation Yrotation Zrotation
		JOINT left_knee
		{
			OFFSET	-28.2	-396.7	2.2
			CHANNELS 3  Xrotation Yrotation Zrotation
			JOINT left_ankle
			{
				OFFSET	-11.7	-411.3	35.4
				CHANNELS 3  Xrotation Yrotation Zrotation
				JOINT left_toes
				{
					OFFSET	0	-60	-88.6
					CHANNELS 3  Xrotation Yrotation Zrotation
					JOINT left_foot_ee
					{
						OFFSET	-22.5	-16.5	-42.2
						CHANNELS 3  Xrotation Yrotation Zrotation
						End Site
						{
							OFFSET	1	0	0
						}
					}
				}
			}
		}
	}
	JOINT right_hip
	{
		OFFSET	82.8	-127.5	0.300001
		CHANNELS 3  Xrotation Yrotation Zrotation
		JOINT right_knee
		{
			OFFSET	28.2	-396.7	2.2
			CHANNELS 3  Xrotation Yrotation Zrotation
			JOINT right_ankle
			{
				OFFSET	11.7	-411.3	35.4
				CHANNELS 3  Xrotation Yrotation Zrotation
				JOINT right_toes
				{
					OFFSET	0	-60	-88.6
					CHANNELS 3  Xrotation Yrotation Zrotation
					JOINT right_foot_ee
					{
						OFFSET	22.5	-16.5	-42.2
						CHANNELS 3  Xrotation Yrotation Zrotation
						End Site
						{
							OFFSET	1	0	0
						}
					}
				}
			}
		}
	}
}
MOTION
Frames: 16
Frame Time: 0.02
2800.94 716.97 -1473.77 -95.250701249 83.608112326 88.6178550048 2.62995 0.286493 3.56751 2.63702 0.0590504 3.57849 2.63914 -0.532622 3.53918 2.62166 0.0326375 3.57883 -6.4176 -1.00585 -7.08912 -6.26922 3.32847 -7.32886 -0.0 0.0 -0.0 0.36562 -4.90319 0.150422 15.5339 -20.4547 61.895 2.47047 -50.7389 1.17159 -29.6849 -1.92678 3.22582 -0.788677 1.98796 -4.40477 -0.0 0.0 -0.0 8.77371 -7.35856 -16.788 -30.4261 4.37137 -66.127 0.616883 16.9925 -0.0921534 -15.8824 0.821843 -1.8506 1.21622 1.39904 -7.58149 0.0 0.0 0.0 -3.65628 -4.57158 6.69832 -10.7726 0.29149 1.62511 37.8165 -31.9185 -5.83849 -32.8882 0.0 0.0 -0.0 0.0 -0.0 33.8934 13.3473 5.87527 0.527223 0.0220687 0.0778958 -10.354 -12.1496 -1.54715 -15.9828 0.0 0.0 0.0 0.0 0.0 
2765.27176705 723.703 -1491.61817241 -105.760411298 83.5107325332 99.3078206716 2.51103 0.520679 3.53303 2.51792 0.294953 3.55896 2.53508 -0.302748 3.55831 2.51751 0.262652 3.56149 -5.07804 -1.73496 -6.24394 -4.96536 1.50304 -6.66289 -0.0 0.0 -0.0 -0.115461 -3.68118 -0.667914 11.9869 -19.8427 63.6417 2.27315 -48.3863 1.02137 -27.4863 -1.72896 3.02504 -0.497038 0.84451 -2.9571 -0.0 0.0 -0.0 9.23026 -9.80347 -17.4465 -29.2983 4.31938 -66.1186 0.764135 20.7331 -0.139786 -15.9157 0.824092 -1.85421 1.22152 -0.233516 -8.28117 0.0 0.0 0.0 -4.37539 -7.2612 5.57879 -12.7276 0.311392 1.92441 37.6506 -29.2856 -5.63308 -29.4934 0.0 0.0 -0.0 0.0 -0.0 32.8828 14.0821 4.52018 -2.64451 -0.0998149 -0.393535 -11.2491 -11.0037 -1.68109 -13.9545 0.0 0.0 0.0 0.0 0.0 
2765.74685953 723.703 -1492.5376041 -92.5832578301 83.7493030789 86.0495633266 2.51103 0.520679 3.53303 2.51792 0.294953 3.55896 2.53508 -0.302748 3.55831 2.51751 0.262652 3.56149 -5.07804 -1.73496 -6.24394 -4.96536 1.50304 -6.66289 -0.0 0.0 -0.0 -0.115461 -3.68118 -0.667914 11.9869 -19.8427 63.6417 2.27315 -48.3863 1.02137 -27.4863 -1.72896 3.02504 -0.497038 0.84451 -2.9571 -0.0 0.0 -0.0 9.23026 -9.80347 -17.4465 -29.2983 4.31938 -66.1186 0.764135 20.7331 -0.139786 -15.9157 0.824092 -1.85421 1.22152 -0.233516 -8.28117 0.0 0.0 0.0 -4.37539 -7.2612 5.57879 -12.7276 0.311392 1.92441 37.6506 -29.2856 -5.63308 -29.4934 0.0 0.0 -0.0 0.0 -0.0 32.8828 14.0821 4.52018 -2.64451 -0.0998149 -0.393535 -11.2491 -11.0037 -1.68109 -13.9545 0.0 0.0 0.0 0.0 0.0 
2750.07940446 727.029 -1499.74580262 -101.788797988 83.7410916598 94.9033075704 2.20052 0.616258 3.57508 2.20755 0.38767 3.60699 2.23145 -0.238382 3.6199 2.21332 0.335923 3.61217 -4.80916 -2.3715 -7.17143 -4.6626 1.06665 -7.72872 -0.0 0.0 -0.0 -0.84519 -3.80211 -2.13755 9.82392 -20.4956 64.8533 2.13728 -46.6287 0.921182 -26.1594 -1.61337 2.90027 -0.363364 0.546013 -2.19338 -0.0 0.0 -0.0 9.58055 -9.76189 -18.1005 -27.7073 4.77276 -67.067 0.692946 18.9456 -0.115623 -15.6563 0.806598 -1.82598 1.31567 -0.468622 -9.01181 0.0 0.0 0.0 -4.21533 -8.53785 5.38316 -13.6156 0.317056 2.06053 38.1258 -27.7055 -5.57909 -28.2056 0.0 0.0 -0.0 0.0 -0.0 32.5897 14.4174 4.08667 -3.98619 -0.143476 -0.594811 -8.86178 -9.5941 -1.31921 -14.9455 0.0 0.0 0.0 0.0 0.0 
2715.01329523 736.288 -1515.99846324 -131.271395755 81.9133692242 124.622956673 2.06313 0.834976 3.6705 2.07042 0.599886 3.71611 2.10927 -0.0557034 3.76374 2.08991 0.538988 3.72542 -3.0581 -2.32721 -5.9796 -2.95757 0.433863 -6.55712 -0.0 0.0 -0.0 -1.01647 -1.35084 -2.14733 4.89628 -19.5877 64.4366 1.78528 -41.485 0.676162 -25.0619 -1.51998 2.79509 0.0867501 0.457779 0.771427 -0.0 0.0 -0.0 10.5491 -10.3951 -19.8412 -24.0884 5.04351 -67.6849 0.751818 20.4267 -0.135456 -14.7907 0.749166 -1.73124 1.37782 -1.88017 -9.99582 0.0 0.0 0.0 -4.37059 -9.67174 3.84487 -15.4716 0.322079 2.34525 37.9107 -25.1946 -5.41083 -26.6721 0.0 0.0 -0.0 0.0 -0.0 31.1141 14.5696 3.47874 -6.18998 -0.204919 -0.927418 -9.65129 -8.3826 -1.43819 -13.0102 0.0 0.0 0.0 0.0 0.0 
2716.08933784 736.288 -1518.12095074 -122.807290677 82.7735774149 116.083231784 2.06313 0.834976 3.6705 2.07042 0.599886 3.71611 2.10927 -0.0557034 3.76374 2.08991 0.538988 3.72542 -3.0581 -2.32721 -5.9796 -2.95757 0.433863 -6.55712 -0.0 0.0 -0.0 -1.01647 -1.35084 -2.14733 4.89628 -19.5877 64.4366 1.78528 -41.485 0.676162 -25.0619 -1.51998 2.79509 0.0867501 0.457779 0.771427 -0.0 0.0 -0.0 10.5491 -10.3951 -19.8412 -24.0884 5.04351 -67.6849 0.751818 20.4267 -0.135456 -14.7907 0.749166 -1.73124 1.37782 -1.88017 -9.99582 0.0 0.0 0.0 -4.37059 -9.67174 3.84487 -15.4716 0.322079 2.34525 37.9107 -25.1946 -5.41083 -26.6721 0.0 0.0 -0.0 0.0 -0.0 31.1141 14.5696 3.47874 -6.18998 -0.204919 -0.927418 -9.65129 -8.3826 -1.43819 -13.0102 0.0 0.0 0.0 0.0 0.0 
2716.3332337 736.288 -1518.58447084 -120.680433088 82.9385159916 113.939739937 2.06313 0.834976 3.6705 2.07042 0.599886 3.71611 2.10927 -0.0557034 3.76374 2.08991 0.538988 3.72542 -3.0581 -2.32721 -5.9796 -2.95757 0.433863 -6.55712 -0.0 0.0 -0.0 -1.01647 -1.35084 -2.14733 4.89628 -19.5877 64.4366 1.78528 -41.485 0.676162 -25.0619 -1.51998 2.79509 0.0867501 0.457779 0.771427 -0.0 0.0 -0.0 10.5491 -10.3951 -19.8412 -24.0884 5.04351 -67.6849 0.751818 20.4267 -0.135456 -14.7907 0.749166 -1.73124 1.37782 -1.88017 -9.99582 0.0 0.0 0.0 -4.37059 -9.67174 3.84487 -15.4716 0.322079 2.34525 37.9107 -25.1946 -5.41083 -26.6721 0.0 0.0 -0.0 0.0 -0.0 31.1141 14.5696 3.47874 -6.18998 -0.204919 -0.927418 -9.65129 -8.3826 -1.43819 -13.0102 0.0 0.0 0.0 0.0 0.0 
2698.27705853 738.421 -1518.24549042 -134.028904868 82.6478990035 127.021272484 1.86874 0.873101 3.68982 1.87609 0.636708 3.73781 1.91803 -0.0358135 3.7914 1.89841 0.562989 3.7496 -3.27487 -1.80015 -6.77582 -3.13959 1.98992 -7.30117 -0.0 0.0 -0.0 -1.45943 0.989029 -2.67603 2.42067 -23.2716 64.7111 1.72253 -40.4703 0.635008 -24.7157 -1.49094 2.76154 0.941784 1.61002 6.95574 -0.0 0.0 -0.0 10.4911 -9.49454 -19.8412 -23.9129 4.87171 -68.3991 0.750626 20.397 -0.135041 -14.3486 0.720382 -1.68251 1.47282 -1.03858 -10.3035 0.0 0.0 0.0 -2.5837 -5.62016 4.80799 -19.8076 0.297879 3.00992 38.0612 -21.3401 -5.23308 -27.3593 0.0 0.0 -0.0 0.0 -0.0 29.748 13.4783 3.48925 -10.332 -0.285595 -1.55777 2.56916 -17.6247 0.378554 -10.2847 0.0 0.0 0.0 0.0 0.0 
2677.88711408 740.245 -1521.91400551 -143.377764905 82.9381717734 135.549719129 1.74221 0.962882 3.80601 1.74998 0.718931 3.85945 1.79919 0.0155672 3.92571 1.77825 0.634893 3.87414 -3.47472 -2.23193 -7.92825 -3.2911 2.07732 -8.55215 -0.0 0.0 -0.0 -1.67297 2.98524 -2.78504 0.864346 -22.3988 64.7561 1.63131 -38.9388 0.576733 -24.2934 -1.45579 2.72039 1.49686 2.11427 10.8931 -0.0 0.0 -0.0 10.6335 -10.5143 -19.9847 -21.7952 5.14302 -68.9031 0.752774 20.4506 -0.13579 -14.4532 0.727161 -1.69406 1.5188 -1.52544 -10.8088 0.0 0.0 0.0 -1.28394 -6.51428 4.87016 -26.6785 0.156889 4.05424 37.821 -21.0755 -5.19819 -26.6995 0.0 0.0 -0.0 0.0 -0.0 27.9406 14.4832 3.438 -13.0105 -0.313425 -1.96777 5.44569 -19.2598 0.80041 -8.29058 0.0 0.0 0.0 0.0 0.0 
2678.50184385 740.245 -1523.45657683 -139.606133333 83.5019260244 131.751591648 1.74221 0.962882 3.80601 1.74998 0.718931 3.85945 1.79919 0.0155672 3.92571 1.77825 0.634893 3.87414 -3.47472 -2.23193 -7.92825 -3.2911 2.07732 -8.55215 -0.0 0.0 -0.0 -1.67297 2.98524 -2.78504 0.864346 -22.3988 64.7561 1.63131 -38.9388 0.576733 -24.2934 -1.45579 2.72039 1.49686 2.11427 10.8931 -0.0 0.0 -0.0 10.6335 -10.5143 -19.9847 -21.7952 5.14302 -68.9031 0.752774 20.4506 -0.13579 -14.4532 0.727161 -1.69406 1.5188 -1.52544 -10.8088 0.0 0.0 0.0 -1.28394 -6.51428 4.87016 -26.6785 0.156889 4.05424 37.821 -21.0755 -5.19819 -26.6995 0.0 0.0 -0.0 0.0 -0.0 27.9406 14.4832 3.438 -13.0105 -0.313425 -1.96777 5.44569 -19.2598 0.80041 -8.29058 0.0 0.0 0.0 0.0 0.0 
2679.17557524 740.245 -1525.08552263 -134.83951476 84.063462152 126.956861681 1.74221 0.962882 3.80601 1.74998 0.718931 3.85945 1.79919 0.0155672 3.92571 1.77825 0.634893 3.87414 -3.47472 -2.23193 -7.92825 -3.2911 2.07732 -8.55215 -0.0 0.0 -0.0 -1.67297 2.98524 -2.78504 0.864346 -22.3988 64.7561 1.63131 -38.9388 0.576733 -24.2934 -1.45579 2.72039 1.49686 2.11427 10.8931 -0.0 0.0 -0.0 10.6335 -10.5143 -19.9847 -21.7952 5.14302 -68.9031 0.752774 20.4506 -0.13579 -14.4532 0.727161 -1.69406 1.5188 -1.52544 -10.8088 0.0 0.0 0.0 -1.28394 -6.51428 4.87016 -26.6785 0.156889 4.05424 37.821 -21.0755 -5.19819 -26.6995 0.0 0.0 -0.0 0.0 -0.0 27.9406 14.4832 3.438 -13.0105 -0.313425 -1.96777 5.44569 -19.2598 0.80041 -8.29058 0.0 0.0 0.0 0.0 0.0 
2660.07329911 738.578 -1534.57429574 -135.541608893 84.8029665356 126.980176457 1.64594 1.02612 3.88584 1.65401 0.77697 3.94313 1.70857 0.0514359 4.0185 1.6867 0.684934 3.96013 -4.01811 -0.290213 -6.26471 -3.89175 4.27076 -6.50259 -0.0 0.0 -0.0 -2.29225 4.68638 -3.67241 -1.15681 -24.7193 64.6596 1.48842 -36.3998 0.489391 -22.5924 -1.31734 2.55207 1.9698 5.5569 15.4284 -0.0 0.0 -0.0 10.8659 -10.2166 -20.4622 -18.6541 6.70216 -69.8189 0.533733 14.81 -0.0693678 -13.0307 0.636846 -1.536 1.39492 -2.3818 -10.3098 0.0 0.0 0.0 0.758 -8.21804 4.92169 -31.0752 0.00138279 4.71093 37.4459 -16.0723 -4.96806 -27.1948 0.0 0.0 -0.0 0.0 -0.0 25.2808 14.6076 3.44648 -11.8792 -0.304009 -1.79445 13.1995 -21.5935 1.91052 -8.26068 0.0 0.0 0.0 0.0 0.0 
2643.2015013 736.764 -1537.62346763 -124.873416874 85.5253005489 115.688198434 1.73324 1.20334 3.88847 1.74114 0.953673 3.95701 1.80808 0.230235 4.06363 1.78609 0.868609 3.97652 -3.14134 -0.0649335 -6.00229 -3.01988 4.55377 -6.2528 -0.0 0.0 -0.0 -2.68657 6.77929 -4.0372 -2.70231 -25.1436 65.4502 1.3407 -33.5882 0.404647 -22.651 -1.32203 2.55793 1.95479 7.48659 16.0374 -0.0 0.0 -0.0 11.3598 -10.0832 -21.4227 -16.658 6.80408 -68.8355 0.56826 15.722 -0.0784592 -13.3849 0.658962 -1.57556 1.13251 -3.99376 -9.18194 0.0 0.0 0.0 2.80432 -6.43157 4.94105 -35.1727 -0.188554 5.31079 38.9876 -11.9149 -4.98528 -28.2595 0.0 0.0 -0.0 0.0 -0.0 24.4909 14.1528 3.71912 -12.595 -0.310365 -1.90409 20.9441 -23.6168 2.97007 -12.777 0.0 0.0 0.0 0.0 0.0 
2633.60152033 739.587 -1544.82475088 -104.013254 85.8720444416 94.5277495463 1.85199 1.23027 3.91595 1.85999 0.9788 3.98614 1.92889 0.258461 4.09624 1.90662 0.90162 4.00428 -3.93493 1.42348 -4.71997 -3.84778 6.21978 -4.64448 -0.0 0.0 -0.0 -3.27737 8.18096 -4.84308 -3.40804 -26.6331 65.667 1.17463 -30.1932 0.316875 -21.925 -1.2644 2.48493 1.86037 11.0922 16.6814 -0.0 0.0 -0.0 11.2595 -9.87813 -21.259 -13.8714 7.27521 -69.5001 0.620047 17.0746 -0.0930804 -13.2049 0.647694 -1.55548 0.795648 -5.72978 -7.62533 0.0 0.0 0.0 4.88146 -6.26124 5.06813 -37.8671 -0.336677 5.69736 39.5021 -7.10912 -4.92358 -29.036 0.0 0.0 -0.0 0.0 -0.0 23.2845 13.6053 3.49715 -10.9151 -0.293286 -1.64691 29.0387 -24.4144 3.98192 -16.4975 0.0 0.0 0.0 0.0 0.0 
2618.60262736 741.618 -1545.3791547 -112.653139443 85.8484349613 103.044850188 1.9074 1.28016 3.94291 1.91546 1.02687 4.01622 1.98816 0.304869 4.134 1.96558 0.953398 4.03426 -4.45344 2.72169 -3.68835 -4.38761 7.78712 -3.33527 -0.0 0.0 -0.0 -4.07024 9.79093 -5.9246 -5.35386 -27.8632 65.9908 1.04327 -27.3294 0.253647 -21.3995 -1.22328 2.43164 1.78613 13.8212 17.1161 -0.0 0.0 -0.0 11.1349 -9.9129 -21.0154 -11.2612 7.80654 -69.817 0.663686 18.1994 -0.106303 -12.996 0.634693 -1.53212 0.502573 -6.93809 -6.17497 0.0 0.0 0.0 6.09802 -6.00271 5.45883 -39.9125 -0.461208 5.98603 39.6155 -3.76004 -4.881 -29.619 0.0 0.0 -0.0 0.0 -0.0 21.5705 12.8153 3.02988 -9.74605 -0.276953 -1.46827 33.2959 -25.2699 4.48554 -19.798 0.0 0.0 0.0 0.0 0.0 
2603.98856442 744.107 -1546.42697641 -121.876965955 85.8137376893 112.664739689 1.90982 1.00221 3.96535 1.91826 0.748063 4.02096 1.97117 0.0276281 4.08975 1.94846 0.672648 4.03424 -4.8639 3.74555 -3.2951 -4.80185 9.36066 -2.72718 -0.0 0.0 -0.0 -4.57226 10.3997 -6.67333 -5.93898 -28.6089 66.6335 0.808894 -21.836 0.156034 -20.5743 -1.15968 2.34719 1.77245 16.574 17.9227 -0.0 0.0 -0.0 11.1199 -10.5727 -20.8957 -10.7969 8.86815 -71.024 0.787418 21.3089 -0.148138 -12.8535 0.625871 -1.51616 0.27014 -7.2846 -4.79431 0.0 0.0 0.0 7.54911 -6.53568 5.10069 -41.6043 -0.571976 6.22139 39.0064 -1.25315 -4.79988 -30.2165 0.0 0.0 -0.0 0.0 -0.0 20.5329 12.4497 1.64297 -9.00539 -0.264721 -1.35528 34.6924 -25.9603 4.65709 -22.7554 0.0 0.0 0.0 0.0 0.0 
